# xmcd
#
# Track frame offsets:
#	150
#	17925
#	36675
#	59175
#	77363
#	93523
#	107400
#	126525
#	146250
#	164813
#	185325
#	205313
#	226088
#	240225
#	266925
#	285345
#	306978
#
# Disc length: 4242 seconds
#
# Revision: 0
# Processed by: cddbd v1.5.2PL0 Copyright (c) Steve Scherf et al.
# Submitted via: EasyCDDAExtractor 8.2.3.1
#
DISCID=f7109011
DTITLE=Doyle and Whiting - Buried Bones
DYEAR=1993
DGENRE=Blues
TTITLE0=After Hours
TTITLE1=Avenue Breakdown
TTITLE2=Ring Of Fire
TTITLE3=Flesh and Blood
TTITLE4=I'll Be On My Way
TTITLE5=Ramblin'
TTITLE6=Gotta Move
TTITLE7=Spirit In The Dark
TTITLE8=Whiskey Woman
TTITLE9=Bright Lights, Big City
TTITLE10=Rockin' Weekend
TTITLE11=Revenge (In The Name Of Love)
TTITLE12=Way Down East
TTITLE13=Mojo Conqueroo
TTITLE14=I'm Crying
TTITLE15=Baby, Please Don't Go
TTITLE16=I'm Movin' On
EXTD=
EXTT0=
EXTT1=
EXTT2=
EXTT3=
EXTT4=
EXTT5=
EXTT6=
EXTT7=
EXTT8=
EXTT9=
EXTT10=
EXTT11=
EXTT12=
EXTT13=
EXTT14=
EXTT15=
EXTT16=
PLAYORDER=
